<?xml version="1.0" encoding="UTF-8"?>
<!DOCTYPE svg PUBLIC "-//W3C//DTD SVG 1.1//EN" "http://www.w3.org/Graphics/SVG/1.1/DTD/svg11.dtd">
<svg xmlns="http://www.w3.org/2000/svg" version="1.1" width="350px" height="409px" style="shape-rendering:geometricPrecision; text-rendering:geometricPrecision; image-rendering:optimizeQuality; fill-rule:evenodd; clip-rule:evenodd" xmlns:xlink="http://www.w3.org/1999/xlink">
<g><path style="opacity:0.13" fill="#000000" d="M 349.5,50.5 C 349.5,56.1667 349.5,61.8333 349.5,67.5C 339.955,69.3219 330.289,69.9885 320.5,69.5C 320.667,181.167 320.5,292.834 320,404.5C 319.338,405.984 318.504,407.317 317.5,408.5C 312.5,408.5 307.5,408.5 302.5,408.5C 255.884,389.366 208.884,371.032 161.5,353.5C 114.116,371.032 67.1157,389.366 20.5,408.5C 15.8333,408.5 11.1667,408.5 6.5,408.5C 4.85639,407.684 3.68972,406.35 3,404.5C 2.00356,271.42 2.3369,138.42 4,5.5C 4.90252,4.29857 6.06919,3.46524 7.5,3C 110.167,2.33333 212.833,2.33333 315.5,3C 317.848,3.34588 319.681,4.51255 321,6.5C 330.363,21.3416 339.863,36.0083 349.5,50.5 Z"/></g>
<g><path style="opacity:1" fill="#424041" d="M 9.5,9.5 C 109.5,9.5 209.5,9.5 309.5,9.5C 309.667,139.167 309.5,268.834 309,398.5C 259.186,379.228 209.519,359.561 160,339.5C 110.079,359.363 60.0791,379.029 10,398.5C 9.5,268.834 9.33333,139.167 9.5,9.5 Z"/></g>
<g><path style="opacity:1" fill="#a90803" d="M 168.5,145.5 C 171.523,135.79 175.856,126.79 181.5,118.5C 182.976,120.769 184.476,123.102 186,125.5C 186.798,127.259 186.631,128.926 185.5,130.5C 181.167,133 176.833,135.5 172.5,138C 190.82,139.37 209.153,140.036 227.5,140C 237.466,124.66 246.466,109.16 254.5,93.5C 249.642,97.1044 244.308,99.271 238.5,100C 231.29,89.0837 224.457,77.917 218,66.5C 216.457,64.6217 214.624,63.1217 212.5,62C 192.192,60.6191 171.859,59.7857 151.5,59.5C 149.307,58.2031 146.973,58.2031 144.5,59.5C 144.624,60.1067 144.957,60.44 145.5,60.5C 146.794,61.2899 147.961,62.2899 149,63.5C 157.363,76.8955 165.196,90.5621 172.5,104.5C 171.167,106.5 169.5,108.167 167.5,109.5C 166.093,107.692 164.926,105.692 164,103.5C 154.254,116.657 144.754,129.991 135.5,143.5C 131.526,144.541 127.859,143.707 124.5,141C 108.251,131.626 92.0844,122.126 76,112.5C 75.3333,110.833 75.3333,109.167 76,107.5C 86.7222,93.1105 97.0556,78.4438 107,63.5C 112.268,58.7844 118.101,54.951 124.5,52C 154.213,51.4585 183.88,52.4585 213.5,55C 217.722,56.0262 221.222,58.1929 224,61.5C 229.845,71.8672 236.178,81.8672 243,91.5C 249.564,88.1345 256.064,84.6345 262.5,81C 264.5,80.3333 266.5,80.3333 268.5,81C 269.409,84.755 268.575,88.255 266,91.5C 254.876,110.252 243.376,128.752 231.5,147C 230.5,147.5 229.5,148 228.5,148.5C 208.557,146.903 188.557,145.903 168.5,145.5 Z"/></g>
<g><path style="opacity:1" fill="#ba9289" d="M 151.5,59.5 C 149.265,59.2053 147.265,59.5386 145.5,60.5C 144.957,60.44 144.624,60.1067 144.5,59.5C 146.973,58.2031 149.307,58.2031 151.5,59.5 Z"/></g>
<g><path style="opacity:1" fill="#fcfbfb" d="M 145.5,60.5 C 147.265,59.5386 149.265,59.2053 151.5,59.5C 171.859,59.7857 192.192,60.6191 212.5,62C 214.624,63.1217 216.457,64.6217 218,66.5C 224.457,77.917 231.29,89.0837 238.5,100C 244.308,99.271 249.642,97.1044 254.5,93.5C 246.466,109.16 237.466,124.66 227.5,140C 209.153,140.036 190.82,139.37 172.5,138C 176.833,135.5 181.167,133 185.5,130.5C 186.631,128.926 186.798,127.259 186,125.5C 184.476,123.102 182.976,120.769 181.5,118.5C 186.584,108.086 194.584,100.753 205.5,96.5C 207.445,91.7619 205.778,89.4286 200.5,89.5C 194.445,90.5993 188.778,92.766 183.5,96C 179.939,99.0726 176.272,101.906 172.5,104.5C 165.196,90.5621 157.363,76.8955 149,63.5C 147.961,62.2899 146.794,61.2899 145.5,60.5 Z"/></g>
<g><path style="opacity:1" fill="#fcfcfc" d="M 125.5,59.5 C 131.362,60.6745 136.696,63.0078 141.5,66.5C 147.751,75.9989 153.751,85.6656 159.5,95.5C 150.556,109.269 141.056,122.603 131,135.5C 115.071,127.123 99.5712,118.123 84.5,108.5C 94.1941,95.3058 103.694,81.9724 113,68.5C 116.79,64.8616 120.957,61.8616 125.5,59.5 Z"/></g>
<g><path style="opacity:1" fill="#030202" d="M 181.5,118.5 C 175.856,126.79 171.523,135.79 168.5,145.5C 160.052,168.836 151.385,192.17 142.5,215.5C 140.929,217.635 139.596,219.968 138.5,222.5C 137.194,224.816 135.861,227.15 134.5,229.5C 137.026,230.897 139.692,231.897 142.5,232.5C 144.117,233.038 145.784,233.371 147.5,233.5C 148.209,234.404 149.209,234.737 150.5,234.5C 153.515,236.674 156.849,238.341 160.5,239.5C 162.793,241.195 165.127,241.862 167.5,241.5C 167.414,242.496 167.748,243.329 168.5,244C 173.83,247.75 179.663,250.25 186,251.5C 187.5,251.167 189,250.833 190.5,250.5C 180.127,239.609 181.461,230.443 194.5,223C 209.823,223.116 215.323,230.616 211,245.5C 203.976,259.258 192.81,266.924 177.5,268.5C 174.512,266.727 171.179,266.06 167.5,266.5C 162.576,264.52 157.576,262.52 152.5,260.5C 149.807,259.153 147.14,257.82 144.5,256.5C 138.331,250.911 131.331,246.578 123.5,243.5C 117.527,247.985 110.861,251.152 103.5,253C 99.5786,253.959 96.4119,252.792 94,249.5C 93.3653,247.365 93.6986,245.365 95,243.5C 98.7862,238.94 103.453,235.606 109,233.5C 111.112,230.273 112.945,226.94 114.5,223.5C 115.338,223.158 115.672,222.492 115.5,221.5C 116.677,219.321 117.677,216.987 118.5,214.5C 121.784,209.336 124.118,203.669 125.5,197.5C 126.45,193.647 127.783,189.98 129.5,186.5C 136.379,167.397 144.546,148.73 154,130.5C 158.521,123.443 163.021,116.443 167.5,109.5C 169.5,108.167 171.167,106.5 172.5,104.5C 176.272,101.906 179.939,99.0726 183.5,96C 188.778,92.766 194.445,90.5993 200.5,89.5C 205.778,89.4286 207.445,91.7619 205.5,96.5C 194.584,100.753 186.584,108.086 181.5,118.5 Z"/></g>
<g><path style="opacity:1" fill="#a90803" d="M 129.5,186.5 C 127.783,189.98 126.45,193.647 125.5,197.5C 119.865,195.267 114.365,192.6 109,189.5C 105.077,197.088 101.244,204.754 97.5,212.5C 104.381,214.226 111.381,214.893 118.5,214.5C 117.677,216.987 116.677,219.321 115.5,221.5C 109.833,221.5 104.167,221.5 98.5,221.5C 96.396,221.201 94.396,221.534 92.5,222.5C 88.2725,231.955 83.7725,241.289 79,250.5C 76.0441,263.072 80.5441,271.239 92.5,275C 110.165,275.931 127.832,276.765 145.5,277.5C 144.911,270.515 144.578,263.515 144.5,256.5C 147.14,257.82 149.807,259.153 152.5,260.5C 152.815,268.42 152.482,276.253 151.5,284C 131.487,284.614 111.487,284.28 91.5,283C 81.4564,279.571 73.623,273.404 68,264.5C 54.2428,242.658 41.2428,220.325 29,197.5C 28.3333,193.833 28.3333,190.167 29,186.5C 34.3105,176.046 39.4772,165.546 44.5,155C 36.9171,150.626 29.4171,146.126 22,141.5C 21.2571,139.559 21.4238,137.726 22.5,136C 44.4827,134.643 66.4827,133.477 88.5,132.5C 91.6246,132.435 94.6246,132.935 97.5,134C 108.455,151.426 119.122,168.926 129.5,186.5 Z"/></g>
<g><path style="opacity:1" fill="#a90703" d="M 167.5,266.5 C 171.179,266.06 174.512,266.727 177.5,268.5C 182.5,276.5 187.5,284.5 192.5,292.5C 192.56,293.043 192.893,293.376 193.5,293.5C 194.495,288.208 194.828,282.875 194.5,277.5C 194.611,276.883 194.944,276.383 195.5,276C 210.833,275.667 226.167,275.333 241.5,275C 243.667,273.5 245.5,271.667 247,269.5C 257.833,253.167 268.667,236.833 279.5,220.5C 251.598,220.63 223.598,220.464 195.5,220C 195,219.5 194.5,219 194,218.5C 193.667,213.5 193.333,208.5 193,203.5C 184.278,216.048 175.778,228.715 167.5,241.5C 165.127,241.862 162.793,241.195 160.5,239.5C 171.527,221.628 183.193,204.128 195.5,187C 197.567,186.464 199.401,186.964 201,188.5C 201.5,196.493 201.666,204.493 201.5,212.5C 210.675,213.822 220.008,213.822 229.5,212.5C 229.376,211.893 229.043,211.56 228.5,211.5C 221.613,198.061 214.446,184.728 207,171.5C 206.08,168.692 206.913,166.525 209.5,165C 227.982,155.675 246.482,146.509 265,137.5C 266.711,137.439 268.044,138.106 269,139.5C 277.936,155.706 286.603,172.04 295,188.5C 296.126,197.342 295.459,206.008 293,214.5C 278.203,236.595 263.036,258.428 247.5,280C 245.913,280.862 244.246,281.529 242.5,282C 228.855,283.115 215.189,283.615 201.5,283.5C 201.666,291.507 201.5,299.507 201,307.5C 200.051,310.2 198.217,311.033 195.5,310C 185.549,295.885 176.216,281.385 167.5,266.5 Z"/></g>
<g><path style="opacity:1" fill="#fcfcfb" d="M 75.5,140.5 C 81.7576,140.19 87.9242,140.524 94,141.5C 103.167,156.667 112.333,171.833 121.5,187C 117.19,185.351 112.857,183.351 108.5,181C 106.888,180.28 105.388,180.446 104,181.5C 91.7268,205.376 80.5602,229.71 70.5,254.5C 59.5414,235.708 48.3747,217.042 37,198.5C 36.1922,196.577 35.6922,194.577 35.5,192.5C 40.6871,179.126 46.6871,166.126 53.5,153.5C 53.4712,151.971 52.8045,150.804 51.5,150C 47.5,147.667 43.5,145.333 39.5,143C 51.6429,142.024 63.6429,141.19 75.5,140.5 Z"/></g>
<g><path style="opacity:1" fill="#fcfcfc" d="M 273.5,213.5 C 261.42,213.812 249.42,213.479 237.5,212.5C 230.446,198.728 223.113,185.062 215.5,171.5C 215.977,170.522 216.643,169.689 217.5,169C 232.574,161.38 247.741,153.88 263,146.5C 272.096,161.02 280.429,176.02 288,191.5C 288.879,196.287 288.545,200.953 287,205.5C 283.351,209.659 278.851,212.326 273.5,213.5 Z"/></g>
<g><path style="opacity:1" fill="#464142" d="M 125.5,197.5 C 124.118,203.669 121.784,209.336 118.5,214.5C 111.381,214.893 104.381,214.226 97.5,212.5C 101.244,204.754 105.077,197.088 109,189.5C 114.365,192.6 119.865,195.267 125.5,197.5 Z"/></g>
<g><path style="opacity:1" fill="#fbfafa" d="M 194.5,277.5 C 193.833,282.5 193.167,287.5 192.5,292.5C 187.5,284.5 182.5,276.5 177.5,268.5C 192.81,266.924 203.976,259.258 211,245.5C 215.323,230.616 209.823,223.116 194.5,223C 181.461,230.443 180.127,239.609 190.5,250.5C 189,250.833 187.5,251.167 186,251.5C 179.663,250.25 173.83,247.75 168.5,244C 167.748,243.329 167.414,242.496 167.5,241.5C 175.778,228.715 184.278,216.048 193,203.5C 193.333,208.5 193.667,213.5 194,218.5C 194.5,219 195,219.5 195.5,220C 223.598,220.464 251.598,220.63 279.5,220.5C 268.667,236.833 257.833,253.167 247,269.5C 245.5,271.667 243.667,273.5 241.5,275C 226.167,275.333 210.833,275.667 195.5,276C 194.944,276.383 194.611,276.883 194.5,277.5 Z"/></g>
<g><path style="opacity:1" fill="#87514c" d="M 228.5,211.5 C 229.043,211.56 229.376,211.893 229.5,212.5C 220.008,213.822 210.675,213.822 201.5,212.5C 210.682,212.827 219.682,212.493 228.5,211.5 Z"/></g>
<g><path style="opacity:1" fill="#a12822" d="M 237.5,212.5 C 249.42,213.479 261.42,213.812 273.5,213.5C 267.676,214.166 261.676,214.5 255.5,214.5C 249.128,214.496 243.128,213.829 237.5,212.5 Z"/></g>
<g><path style="opacity:1" fill="#a80201" d="M 142.5,215.5 C 144.467,215.261 146.301,215.594 148,216.5C 149.316,219.688 149.816,223.022 149.5,226.5C 150.01,229.388 149.344,231.721 147.5,233.5C 145.784,233.371 144.117,233.038 142.5,232.5C 142.5,229.167 142.5,225.833 142.5,222.5C 141.167,222.5 139.833,222.5 138.5,222.5C 139.596,219.968 140.929,217.635 142.5,215.5 Z"/></g>
<g><path style="opacity:1" fill="#bd9f97" d="M 98.5,221.5 C 104.167,221.5 109.833,221.5 115.5,221.5C 115.672,222.492 115.338,223.158 114.5,223.5C 109.167,222.833 103.833,222.167 98.5,221.5 Z"/></g>
<g><path style="opacity:1" fill="#fbfafa" d="M 98.5,221.5 C 103.833,222.167 109.167,222.833 114.5,223.5C 112.945,226.94 111.112,230.273 109,233.5C 103.453,235.606 98.7862,238.94 95,243.5C 93.6986,245.365 93.3653,247.365 94,249.5C 96.4119,252.792 99.5786,253.959 103.5,253C 110.861,251.152 117.527,247.985 123.5,243.5C 131.331,246.578 138.331,250.911 144.5,256.5C 144.578,263.515 144.911,270.515 145.5,277.5C 127.832,276.765 110.165,275.931 92.5,275C 80.5441,271.239 76.0441,263.072 79,250.5C 83.7725,241.289 88.2725,231.955 92.5,222.5C 94.396,221.534 96.396,221.201 98.5,221.5 Z"/></g>
<g><path style="opacity:1" fill="#eceae9" d="M 138.5,222.5 C 139.833,222.5 141.167,222.5 142.5,222.5C 142.5,225.833 142.5,229.167 142.5,232.5C 139.692,231.897 137.026,230.897 134.5,229.5C 135.861,227.15 137.194,224.816 138.5,222.5 Z"/></g>
<g><path style="opacity:1" fill="#883831" d="M 149.5,226.5 C 150.473,228.948 150.806,231.615 150.5,234.5C 149.209,234.737 148.209,234.404 147.5,233.5C 149.344,231.721 150.01,229.388 149.5,226.5 Z"/></g>
<g><path style="opacity:1" fill="#9e3933" d="M 194.5,277.5 C 194.828,282.875 194.495,288.208 193.5,293.5C 192.893,293.376 192.56,293.043 192.5,292.5C 193.167,287.5 193.833,282.5 194.5,277.5 Z"/></g>
</svg>
